<?xml version="1.0" encoding="UTF-8"?>
<svg id="Camada_1" data-name="Camada 1" xmlns="http://www.w3.org/2000/svg" viewBox="0 0 612.62 333.69">
  <defs>
    <style>
      .cls-1 {
        fill: #009bd8;
        stroke-width: 0px;
      }
    </style>
  </defs>
  <path class="cls-1" d="m507.51,9.54c-68.91-22.84-142.09-2.12-201.7,34.96C182.12,121.47,133.24,296.08.86,270.09c-.89-.17-1.22,1.04-.37,1.35,110.63,39.5,180.57-97.72,243.73-162.27,51.64-52.78,119.9-94.16,195.09-97.56,52.18-2.36,150.59,26.14,159.74,88.28-7.73-6.22-16.26-10.79-26.74-12.69-10.19-8.9-22.93-14.26-37.32-12.87-.95.1-1.16,1.35-.22,1.67,17.66,6.14,33.08,17.66,42.45,33.31-26.39-17.94-63.83-21.22-96.99-23.28-38.99-2.42-113.17,30.53-140.49,61.02-11.32,8.6-22.02,18.02-31.99,27.98-85.63,85.51-40.66,157.1-42.31,143.93-8.73-69.28,30.24-126.76,86.85-165.97-41.1,38.63-59.46,83.11-60.57,123.44-.07,2.67,3.92,3.16,4.6.63,12.32-46.35,28.47-85.71,65.71-116.02-6.36,10.67-11.37,21.56-14.81,31.22-14.94,42.07-10.29,87.38,13.23,124.82,1.3,2.08,4.39.26,3.27-1.9-25.08-48.48-18.62-108.85,11.91-151.26-16.75,33.81-23.92,79.79-7.03,115.11,1.13,2.35,5,.69,4.19-1.78-9.35-28.41-2.87-64.13,6.62-92.4-26.02,91.6,60.64,162.78,150.59,146.54,3.33-.6,1.86-5.46-1.38-5-54.9,7.9-112.6-18.34-136.91-69-14.5-30.22-9.84-66.25,7.23-93.93-7.12,19.25-7.94,38.6-5.31,59.13.17,1.31,1.98,1.37,2.09,0,1.66-20.84,10.07-51.57,18.43-67.56-10.97,34.51-11.41,69.22,4.74,102.33.75,1.53,3.23.45,2.73-1.16-8.35-26.97-6.01-77.26,8.52-109.61-17.47,50.71-2.64,135.48,60.89,139.15.94.06,1.04-1.3.21-1.56-33.31-10.82-53.33-47.18-56.21-84.1,10.54,52.18,64.64,80.05,112.69,76.7,2.23-.16,2.26-3.4,0-3.49-129.3-4.84-129.02-169.09-55.26-146.21,10.99,3.42,9.66-16.45-22.67-25.18,37.72-5.92,90.72.84,116.69,29.5,3.74,4.11,10.07-.23,8.88-5.18-1.68-6.98-4.41-13.93-8.05-20.36,5.1,3.77,9.66,8.4,14.07,13.46,4,4.59,10.17.44,10.73-4.44,6.71-58.57-58.15-89.92-104.63-105.32Z"/>
  <path class="cls-1" d="m231.78,165.02c-45.79,23.05-42.62,97.21-154.78,124.81-9.11,2.25,34.77,5.66,90.72-40.23,12.98-10.64,23.02-24.8,33.03-38.12,11.02-14.68,24.16-27.9,34.64-42.84,1.64-2.34-1.44-4.7-3.61-3.61Z"/>
  <path class="cls-1" d="m537.33,57.19c3.11,1.84,7.44,2.27,5.18-.93-20.59-29.17-76.88-36.3-108.24-25.36-.37.13-.31.67.09.69,63.69,2.6,68.45,5.2,102.97,25.6Z"/>
  <path class="cls-1" d="m330.72,128.93c44.62-38.97,103.3-57.3,135.59-55.21,2.89.18,2.7-4.59,0-5.57-54.62-19.9-142.84,49.19-135.59,60.78Z"/>
</svg>